<?xml version="1.0" encoding="iso-8859-1"?>
<!-- Generator: Adobe Illustrator 19.0.0, SVG Export Plug-In . SVG Version: 6.00 Build 0)  -->
<svg version="1.1" id="Capa_1" xmlns="http://www.w3.org/2000/svg" xmlns:xlink="http://www.w3.org/1999/xlink" x="0px" y="0px"
	 viewBox="0 0 512 512" style="enable-background:new 0 0 512 512;" xml:space="preserve">
<g>
	<g>
		<path d="M256,121h-45V76c0-8.284-6.716-15-15-15h-60c-8.284,0-15,6.716-15,15v45H76c-8.284,0-15,6.716-15,15v60
			c0,8.284,6.716,15,15,15h45v45c0,8.284,6.716,15,15,15h60c8.284,0,15-6.716,15-15v-45h45c8.284,0,15-6.716,15-15v-60
			C271,127.716,264.284,121,256,121z M241,181h-45c-8.284,0-15,6.716-15,15v45h-30v-45c0-8.284-6.716-15-15-15H91v-30h45
			c8.284,0,15-6.716,15-15V91h30v45c0,8.284,6.716,15,15,15h45V181z"/>
	</g>
</g>
<g>
	<g>
		<path d="M436,331H256c-8.284,0-15,6.716-15,15v60c0,8.284,6.716,15,15,15h180c8.284,0,15-6.716,15-15v-60
			C451,337.716,444.284,331,436,331z M421,391H271v-30h150V391z"/>
	</g>
</g>
<g>
	<g>
		<path d="M467,0H45C20.187,0,0,20.187,0,45v422c0,24.72,20.128,45,45,45h422c24.813,0,45-20.187,45-45V45
			C512,20.243,491.832,0,467,0z M30,460.788V45c0-8.271,6.729-15,15-15h415.787L30,460.788z M482,467c0,8.271-6.729,15-15,15H51.213
			L482,51.213V467z"/>
	</g>
</g>
<g>
</g>
<g>
</g>
<g>
</g>
<g>
</g>
<g>
</g>
<g>
</g>
<g>
</g>
<g>
</g>
<g>
</g>
<g>
</g>
<g>
</g>
<g>
</g>
<g>
</g>
<g>
</g>
<g>
</g>
</svg>
