<?xml version="1.0" encoding="iso-8859-1"?>
<!-- Generator: Adobe Illustrator 19.0.0, SVG Export Plug-In . SVG Version: 6.00 Build 0)  -->
<svg version="1.1" id="Capa_1" xmlns="http://www.w3.org/2000/svg" xmlns:xlink="http://www.w3.org/1999/xlink" x="0px" y="0px"
	 viewBox="0 0 512 512" style="enable-background:new 0 0 512 512;" xml:space="preserve">
<g>
	<g>
		<path d="M375,60H75c-8.284,0-15,6.716-15,15v270c0,8.284,6.716,15,15,15h300c8.284,0,15-6.716,15-15V75
			C390,66.716,383.284,60,375,60z M90,330v-49.099l69.844-69.844L278.787,330H90z M360,330h-38.787l-52.5-52.5L300,246.213l60,60
			V330z M360,263.787l-49.394-49.394c-5.857-5.858-15.355-5.858-21.213,0L247.5,256.287l-77.05-77.05
			c-5.857-5.858-15.355-5.858-21.213,0L90,238.474V90h270V263.787z"/>
	</g>
</g>
<g>
	<g>
		<path d="M255,120c-24.813,0-45,20.187-45,45s20.187,45,45,45s45-20.187,45-45S279.813,120,255,120z M255,180
			c-8.271,0-15-6.729-15-15s6.729-15,15-15s15,6.729,15,15S263.271,180,255,180z"/>
	</g>
</g>
<g>
	<g>
		<path d="M467,60h-17V45c0-24.813-20.187-45-45-45H45C20.187,0,0,20.187,0,45v362c0,24.813,20.187,45,45,45h15v15
			c0,24.813,20.187,45,45,45h362c24.813,0,45-20.187,45-45V105C512,80.187,491.813,60,467,60z M45,422c-8.271,0-15-6.729-15-15V45
			c0-8.271,6.729-15,15-15h360c8.271,0,15,6.729,15,15v362c0,8.271-6.729,15-15,15H45z M482,467c0,8.271-6.729,15-15,15H105
			c-8.271,0-15-6.729-15-15v-15h315c24.813,0,45-20.187,45-45V90h17c8.271,0,15,6.729,15,15V467z"/>
	</g>
</g>
<g>
</g>
<g>
</g>
<g>
</g>
<g>
</g>
<g>
</g>
<g>
</g>
<g>
</g>
<g>
</g>
<g>
</g>
<g>
</g>
<g>
</g>
<g>
</g>
<g>
</g>
<g>
</g>
<g>
</g>
</svg>
