<?xml version="1.0" encoding="iso-8859-1"?>
<!-- Generator: Adobe Illustrator 19.0.0, SVG Export Plug-In . SVG Version: 6.00 Build 0)  -->
<svg version="1.1" id="Capa_1" xmlns="http://www.w3.org/2000/svg" xmlns:xlink="http://www.w3.org/1999/xlink" x="0px" y="0px"
	 viewBox="0 0 512 512" style="enable-background:new 0 0 512 512;" xml:space="preserve">
<g>
	<g>
		<path d="M467,106.002h-50.729l-25.69-51.381c-2.539-5.384-7.997-8.755-13.903-8.619H195c-5.682,0-10.875,3.21-13.417,8.292
			l-25.854,51.708H120v-15c0-24.813-20.187-45-45-45s-45,20.187-45,45v17.58c-17.459,6.192-30,22.865-30,42.42v270
			c0,24.813,20.187,45,45,45h422c24.813,0,45-20.187,45-45v-270C512,126.189,491.813,106.002,467,106.002z M60,91.002
			c0-8.271,6.729-15,15-15s15,6.729,15,15v15H60V91.002z M482,421.002c0,8.271-6.729,15-15,15H45c-8.271,0-15-6.729-15-15v-270
			c0-8.271,6.729-15,15-15c5.273,0,114.737,0,120,0c5.682,0,10.875-3.21,13.417-8.292l25.854-51.708H367.73l25.854,51.708
			c2.54,5.082,7.734,8.292,13.416,8.292h60c8.271,0,15,6.729,15,15V421.002z"/>
	</g>
</g>
<g>
	<g>
		<path d="M317,166.002H75c-8.284,0-15,6.716-15,15v210c0,8.284,6.716,15,15,15h242c8.284,0,15-6.716,15-15v-210
			C332,172.718,325.284,166.002,317,166.002z M302,376.002H90v-180h212V376.002z"/>
	</g>
</g>
<g>
	<g>
		<path d="M407,316.002c-24.813,0-45,20.187-45,45s20.187,45,45,45s45-20.187,45-45S431.813,316.002,407,316.002z M407,376.002
			c-8.271,0-15-6.729-15-15s6.729-15,15-15s15,6.729,15,15S415.271,376.002,407,376.002z"/>
	</g>
</g>
<g>
	<g>
		<circle cx="407" cy="271" r="15"/>
	</g>
</g>
<g>
	<g>
		<circle cx="407" cy="211" r="15"/>
	</g>
</g>
<g>
</g>
<g>
</g>
<g>
</g>
<g>
</g>
<g>
</g>
<g>
</g>
<g>
</g>
<g>
</g>
<g>
</g>
<g>
</g>
<g>
</g>
<g>
</g>
<g>
</g>
<g>
</g>
<g>
</g>
</svg>
