<?xml version="1.0" encoding="iso-8859-1"?>
<!-- Generator: Adobe Illustrator 19.0.0, SVG Export Plug-In . SVG Version: 6.00 Build 0)  -->
<svg version="1.1" id="Capa_1" xmlns="http://www.w3.org/2000/svg" xmlns:xlink="http://www.w3.org/1999/xlink" x="0px" y="0px"
	 viewBox="0 0 512 512" style="enable-background:new 0 0 512 512;" xml:space="preserve">
<g>
	<g>
		<path d="M467,0H45C20.187,0,0,20.187,0,45v422c0,24.813,20.187,45,45,45h422c24.813,0,45-20.187,45-45V45
			C512,20.187,491.813,0,467,0z M482,467c0,8.271-6.729,15-15,15H45c-8.271,0-15-6.729-15-15v-47c12.165,0,443.614,0,452,0V467z
			 M181.074,330.051c14.909,1.612,29.523,8.223,40.515,19.313c11.003,11.075,17.61,25.411,19.321,40.532
			c-14.796-1.663-29.271-8.154-40.535-19.344C189.426,359.7,182.706,345.142,181.074,330.051z M241.291,197.942
			C242.693,204.953,248.85,210,256,210c7.15,0,13.307-5.047,14.709-12.058c6.726-33.633,29.819-60.561,60.291-72.871V165
			c0,41.355-33.645,75-75,75c-41.355,0-75-33.645-75-75v-39.93C211.416,137.358,234.552,164.244,241.291,197.942z M241.119,131.975
			c0.991-13.563,8.397-26.048,14.88-34.544c6.487,8.501,13.891,20.984,14.882,34.544c-5.612,6.409-10.607,13.376-14.881,20.828
			C251.727,145.351,246.731,138.384,241.119,131.975z M271.113,389.896c1.689-14.929,8.184-29.322,19.334-40.544
			c10.851-10.95,25.416-17.671,40.502-19.301c-1.609,14.878-8.202,29.501-19.313,40.514
			C300.568,381.56,286.17,388.203,271.113,389.896z M482,390H334.55c18.593-19.467,28.902-46.687,26.396-76.266
			c-0.616-7.285-6.396-13.064-13.681-13.681c-29.627-2.509-56.925,7.888-76.266,26.354v-57.483c50.817-7.301,90-51.119,90-103.924
			v-60c0-4.494-2.015-8.751-5.49-11.6s-8.045-3.989-12.451-3.109c-17.006,3.401-32.745,10.042-46.579,19.253
			c-9.204-26.384-29.373-44.733-30.474-45.719c-5.695-5.1-14.316-5.1-20.012,0c-1.101,0.986-21.271,19.335-30.474,45.719
			c-13.834-9.211-29.572-15.851-46.579-19.253c-4.405-0.882-8.976,0.26-12.451,3.109C153.014,96.249,151,100.506,151,105v60
			c0,52.804,39.183,96.623,90,103.924v57.503c-19.552-18.66-46.79-28.867-76.242-26.373c-7.285,0.617-13.064,6.396-13.681,13.681
			c-2.524,29.795,7.958,56.967,26.396,76.266H30V45c0-8.271,6.729-15,15-15h422c8.271,0,15,6.729,15,15V390z"/>
	</g>
</g>
<g>
</g>
<g>
</g>
<g>
</g>
<g>
</g>
<g>
</g>
<g>
</g>
<g>
</g>
<g>
</g>
<g>
</g>
<g>
</g>
<g>
</g>
<g>
</g>
<g>
</g>
<g>
</g>
<g>
</g>
</svg>
